<svg width="75" height="20" fill="none" xmlns="http://www.w3.org/2000/svg"><path d="M10.1 11.04c-.387 1.04-1.08 1.82-2.08 2.34-.987.52-2.133.78-3.44.78-1.413 0-2.5-.313-3.26-.94C.573 12.58.2 11.687.2 10.54c0-.973.22-2.087.66-3.34l.98-2.74c.533-1.493 1.193-2.607 1.98-3.34C4.607.373 5.58 0 6.74 0c.987 0 1.767.273 2.34.82.573.547.86 1.247.86 2.1 0 .44-.073.853-.22 1.24l-.16.44c-.333.92-.793 1.58-1.38 1.98-.587.387-1.347.58-2.28.58-.347 0-.52-.16-.52-.48 0-.187.06-.34.18-.46a.68.68 0 01.5-.2c1.12 0 1.887-.573 2.3-1.72l.16-.44c.12-.32.18-.627.18-.92 0-.533-.187-.967-.56-1.3-.36-.333-.867-.5-1.52-.5-.773 0-1.453.293-2.04.88-.573.587-1.087 1.5-1.54 2.74L2.06 7.5c-.413 1.147-.62 2.153-.62 3.02 0 .8.28 1.42.84 1.86.56.427 1.367.64 2.42.64 1.04 0 1.947-.207 2.72-.62.787-.413 1.307-.967 1.56-1.66l.14-.38c.107-.28.313-.42.62-.42.36 0 .54.16.54.48a.558.558 0 01-.04.24l-.14.38z" fill="#8A654D"/><path d="M11.066 14.16c-.734 0-1.307-.2-1.72-.6-.414-.4-.62-.92-.62-1.56 0-.373.086-.807.26-1.3l1-2.76c.64-1.8 1.746-2.7 3.32-2.7.733 0 1.306.2 1.72.6.413.4.62.92.62 1.56 0 .347-.074.74-.22 1.18-.027.08-.04.193-.04.34 0 .227.1.413.3.56.2.147.48.22.84.22.773 0 1.286-.333 1.54-1l.14-.38c.106-.28.313-.42.62-.42.373 0 .56.147.56.44 0 .093-.02.187-.06.28l-.14.38c-.454 1.2-1.36 1.8-2.72 1.8-.707 0-1.254-.193-1.64-.58l-.44 1.24c-.64 1.8-1.747 2.7-3.32 2.7zm.16-1.1c.853 0 1.506-.633 1.96-1.9l1-2.76c.12-.347.18-.667.18-.96 0-.333-.107-.6-.32-.8-.214-.2-.514-.3-.9-.3-.854 0-1.507.633-1.96 1.9l-1 2.76c-.12.347-.18.667-.18.96 0 .333.106.6.32.8.213.2.513.3.9.3z" fill="#8A654D"/><path d="M21.686 8.3c.186-.44.28-.807.28-1.1a.84.84 0 00-.24-.62c-.147-.16-.354-.24-.62-.24-.334 0-.62.153-.86.46-.24.293-.48.773-.72 1.44l-.84 2.34c-.16.453-.24.807-.24 1.06 0 .947.66 1.42 1.98 1.42.733 0 1.413-.233 2.04-.7.64-.467 1.133-1.167 1.48-2.1l.14-.38c.106-.28.313-.42.62-.42.373 0 .56.147.56.44 0 .093-.02.187-.06.28l-.14.38c-.414 1.147-1.06 2.033-1.94 2.66a4.89 4.89 0 01-2.9.94c-2.04 0-3.06-.827-3.06-2.48 0-.333.106-.807.32-1.42l.84-2.32c.346-.933.746-1.613 1.2-2.04.453-.44 1.033-.66 1.74-.66.613 0 1.093.18 1.44.54.36.36.54.82.54 1.38 0 .373-.12.853-.36 1.44-.12.32-.347.48-.68.48h-.02c-.374 0-.56-.167-.56-.5 0-.093.02-.187.06-.28z" fill="#8A654D"/><path d="M25.85 14.16c-.732 0-1.306-.2-1.72-.6-.412-.4-.62-.92-.62-1.56 0-.373.088-.807.26-1.3l1-2.76c.64-1.8 1.748-2.7 3.32-2.7.734 0 1.308.2 1.72.6.414.4.62.92.62 1.56 0 .347-.072.74-.22 1.18-.026.08-.04.193-.04.34 0 .227.1.413.3.56.2.147.48.22.84.22.774 0 1.288-.333 1.54-1l.14-.38c.108-.28.314-.42.62-.42.374 0 .56.147.56.44 0 .093-.02.187-.06.28l-.14.38c-.452 1.2-1.36 1.8-2.72 1.8-.706 0-1.252-.193-1.64-.58l-.44 1.24c-.64 1.8-1.746 2.7-3.32 2.7zm.16-1.1c.854 0 1.508-.633 1.96-1.9l1-2.76c.12-.347.18-.667.18-.96 0-.333-.106-.6-.32-.8-.212-.2-.512-.3-.9-.3-.852 0-1.506.633-1.96 1.9l-1 2.76c-.12.347-.18.667-.18.96 0 .333.108.6.32.8.214.2.514.3.9.3z" fill="#8A654D"/><path d="M34.19 14.16c-.72 0-1.286-.2-1.7-.6-.413-.4-.62-.92-.62-1.56 0-.4.08-.833.24-1.3l1-2.76c.64-1.8 1.734-2.7 3.28-2.7.84 0 1.434.267 1.78.8l.12-.32c.107-.32.334-.48.68-.48h.02c.374 0 .56.167.56.5 0 .093-.02.187-.06.28l-1.82 5c-.16.467-.24.84-.24 1.12 0 .293.094.52.28.68.2.16.474.24.82.24.507 0 .9-.187 1.18-.56.294-.373.587-.953.88-1.74l.14-.38c.107-.28.314-.42.62-.42.374 0 .56.147.56.44 0 .08-.02.173-.06.28l-.14.38c-.4 1.107-.86 1.9-1.38 2.38-.506.48-1.16.72-1.96.72-.906 0-1.573-.307-2-.92-.573.613-1.3.92-2.18.92zm.16-1.1c.854 0 1.507-.633 1.96-1.9l1-2.76c.12-.347.18-.667.18-.96 0-.333-.106-.6-.32-.8-.213-.2-.513-.3-.9-.3-.853 0-1.506.633-1.96 1.9l-1 2.76c-.12.347-.18.667-.18.96 0 .333.107.6.32.8.214.2.514.3.9.3zm21.297-2.02c-.387 1.04-1.08 1.82-2.08 2.34-.987.52-2.133.78-3.44.78-1.413 0-2.5-.313-3.26-.94-.747-.64-1.12-1.533-1.12-2.68 0-.973.22-2.087.66-3.34l.98-2.74c.533-1.493 1.193-2.607 1.98-3.34.787-.747 1.76-1.12 2.92-1.12.986 0 1.767.273 2.34.82.573.547.86 1.247.86 2.1 0 .44-.074.853-.22 1.24l-.16.44c-.334.92-.794 1.58-1.38 1.98-.587.387-1.347.58-2.28.58-.347 0-.52-.16-.52-.48 0-.187.06-.34.18-.46a.68.68 0 01.5-.2c1.12 0 1.886-.573 2.3-1.72l.16-.44c.12-.32.18-.627.18-.92 0-.533-.187-.967-.56-1.3-.36-.333-.867-.5-1.52-.5-.773 0-1.453.293-2.04.88-.574.587-1.087 1.5-1.54 2.74l-.98 2.74c-.413 1.147-.62 2.153-.62 3.02 0 .8.28 1.42.84 1.86.56.427 1.367.64 2.42.64 1.04 0 1.947-.207 2.72-.62.787-.413 1.306-.967 1.56-1.66l.14-.38c.106-.28.313-.42.62-.42.36 0 .54.16.54.48a.556.556 0 01-.04.24l-.14.38z" fill="#8A654D"/><path d="M56.613 14.16c-.72 0-1.287-.2-1.7-.6-.414-.4-.62-.92-.62-1.56 0-.4.08-.833.24-1.3l1-2.76c.64-1.8 1.733-2.7 3.28-2.7.84 0 1.433.267 1.78.8l.12-.32c.106-.32.333-.48.68-.48h.02c.373 0 .56.167.56.5 0 .093-.02.187-.06.28l-1.82 5c-.16.467-.24.84-.24 1.12 0 .293.093.52.28.68.2.16.473.24.82.24.506 0 .9-.187 1.18-.56.293-.373.586-.953.88-1.74l.14-.38c.106-.28.313-.42.62-.42.373 0 .56.147.56.44 0 .08-.02.173-.06.28l-.14.38c-.4 1.107-.86 1.9-1.38 2.38-.507.48-1.16.72-1.96.72-.907 0-1.574-.307-2-.92-.574.613-1.3.92-2.18.92zm.16-1.1c.853 0 1.506-.633 1.96-1.9l1-2.76c.12-.347.18-.667.18-.96 0-.333-.107-.6-.32-.8-.214-.2-.514-.3-.9-.3-.854 0-1.507.633-1.96 1.9l-1 2.76c-.12.347-.18.667-.18.96 0 .333.106.6.32.8.213.2.513.3.9.3z" fill="#8A654D"/><path d="M64.089 6.54c-.334 0-.5-.16-.5-.48 0-.2.06-.36.18-.48a.72.72 0 01.5-.18h.66l1.02-2.84c.36-1 .846-1.673 1.46-2.02.626-.36 1.373-.54 2.24-.54h.64c.32 0 .48.16.48.48a.632.632 0 01-.2.46.591.591 0 01-.46.2h-.7c-1.094 0-1.847.573-2.26 1.72l-.92 2.54h1.88c.333 0 .5.16.5.48 0 .187-.06.347-.18.48-.12.12-.287.18-.5.18h-2.12l-1.58 4.38c.666.36 1.106.973 1.32 1.84.706-.08 1.253-.28 1.64-.6.4-.333.713-.8.94-1.4l.14-.38c.106-.28.32-.42.64-.42.36 0 .54.147.54.44 0 .08-.02.173-.06.28l-.14.38c-.307.827-.747 1.467-1.32 1.92-.56.44-1.3.713-2.22.82v.26c0 .853-.147 1.687-.44 2.5l-.2.56c-.534 1.52-1.374 2.28-2.52 2.28-.587 0-1.04-.167-1.36-.5-.334-.333-.5-.773-.5-1.32 0-.387.093-.827.28-1.32l3.54-9.72h-.42zm-2.14 11.02c0 .493.22.74.66.74.506 0 .94-.493 1.3-1.48l.2-.56c.28-.787.42-1.527.42-2.22 0-.933-.247-1.587-.74-1.96l-1.62 4.48c-.147.44-.22.773-.22 1z" fill="#8A654D"/><path d="M73.986 12.82c-.893.893-1.96 1.34-3.2 1.34-1.867 0-2.8-.827-2.8-2.48 0-.333.107-.807.32-1.42l.84-2.32c.347-.947.753-1.633 1.22-2.06.467-.427 1.033-.64 1.7-.64.613 0 1.093.167 1.44.5.347.333.52.76.52 1.28 0 .173-.02.347-.06.52l-.12.54c-.173.787-.54 1.433-1.1 1.94-.56.507-1.247.76-2.06.76-.32 0-.707-.093-1.16-.28l-.02.08c-.16.453-.24.807-.24 1.06 0 .947.573 1.42 1.72 1.42.8 0 1.56-.36 2.28-1.08a.497.497 0 01.36-.16c.147 0 .273.053.38.16.12.093.18.22.18.38a.632.632 0 01-.2.46zm-3.64-4.58l-.44 1.22c.293.147.58.22.86.22.947-.013 1.553-.613 1.82-1.8l.1-.44c.027-.16.04-.273.04-.34 0-.507-.26-.76-.78-.76-.347 0-.64.153-.88.46-.24.293-.48.773-.72 1.44z" fill="#8A654D"/></svg>