<svg width="24" height="25" fill="none" xmlns="http://www.w3.org/2000/svg"><path d="M7.187 18.75c-1.075 0-1.945.938-1.945 2.083 0 1.146.87 2.084 1.945 2.084 1.075 0 1.955-.938 1.955-2.084 0-1.145-.88-2.083-1.955-2.083zM1.322 2.083v2.084h1.955l3.519 7.906-1.32 2.552a2.118 2.118 0 00-.244 1c0 1.146.88 2.083 1.955 2.083h11.73v-2.083H7.597c-.136 0-.244-.114-.244-.26l.03-.125.88-1.698h7.281c.733 0 1.378-.427 1.71-1.073l3.5-6.76c.078-.146.117-.324.117-.5 0-.574-.44-1.042-.977-1.042H5.437l-.919-2.084H1.322zm15.64 16.667c-1.076 0-1.946.938-1.946 2.083 0 1.146.87 2.084 1.946 2.084 1.075 0 1.955-.938 1.955-2.084 0-1.145-.88-2.083-1.955-2.083z" fill="#fff"/></svg>