<svg width="16" height="15" fill="none" xmlns="http://www.w3.org/2000/svg"><path d="M14.498 10.417a9.468 9.468 0 01-2.975-.475.85.85 0 00-.85.2l-1.834 1.833a12.538 12.538 0 01-5.491-5.492L5.18 4.642a.8.8 0 00.208-.834A9.467 9.467 0 014.914.833.836.836 0 004.081 0H1.164a.836.836 0 00-.833.833C.331 8.658 6.673 15 14.498 15a.836.836 0 00.833-.833V11.25a.836.836 0 00-.833-.833zM13.664 7.5h1.667a7.5 7.5 0 00-7.5-7.5v1.667A5.829 5.829 0 0113.664 7.5zm-3.333 0h1.667c0-2.3-1.867-4.167-4.167-4.167V5c1.383 0 2.5 1.117 2.5 2.5z" fill="#fff"/></svg>