<svg width="75" height="20" viewBox="0 0 75 20" fill="none" xmlns="http://www.w3.org/2000/svg">
<path d="M10.1 11.04C9.71329 12.08 9.01995 12.86 8.01995 13.38C7.03328 13.9 5.88662 14.16 4.57995 14.16C3.16662 14.16 2.07995 13.8467 1.31995 13.22C0.573285 12.58 0.199951 11.6867 0.199951 10.54C0.199951 9.56667 0.419951 8.45333 0.859951 7.2L1.83995 4.46C2.37328 2.96667 3.03328 1.85333 3.81995 1.12C4.60662 0.373333 5.57995 0 6.73995 0C7.72662 0 8.50662 0.273333 9.07995 0.82C9.65329 1.36667 9.93995 2.06667 9.93995 2.92C9.93995 3.36 9.86662 3.77333 9.71995 4.16L9.55995 4.6C9.22662 5.52 8.76662 6.18 8.17995 6.58C7.59329 6.96667 6.83329 7.16 5.89995 7.16C5.55329 7.16 5.37995 7 5.37995 6.68C5.37995 6.49333 5.43995 6.34 5.55995 6.22C5.69329 6.08667 5.85995 6.02 6.05995 6.02C7.17995 6.02 7.94662 5.44667 8.35995 4.3L8.51995 3.86C8.63995 3.54 8.69995 3.23333 8.69995 2.94C8.69995 2.40667 8.51328 1.97333 8.13995 1.64C7.77995 1.30667 7.27328 1.14 6.61995 1.14C5.84662 1.14 5.16662 1.43333 4.57995 2.02C4.00662 2.60667 3.49328 3.52 3.03995 4.76L2.05995 7.5C1.64662 8.64667 1.43995 9.65333 1.43995 10.52C1.43995 11.32 1.71995 11.94 2.27995 12.38C2.83995 12.8067 3.64662 13.02 4.69995 13.02C5.73995 13.02 6.64662 12.8133 7.41995 12.4C8.20662 11.9867 8.72662 11.4333 8.97995 10.74L9.11995 10.36C9.22662 10.08 9.43328 9.94 9.73995 9.94C10.1 9.94 10.28 10.1 10.28 10.42C10.28 10.5267 10.2666 10.6067 10.24 10.66L10.1 11.04Z" fill="#8A654D"/>
<path d="M11.0657 14.16C10.3324 14.16 9.75907 13.96 9.34573 13.56C8.9324 13.16 8.72573 12.64 8.72573 12C8.72573 11.6267 8.8124 11.1933 8.98573 10.7L9.98573 7.94C10.6257 6.14 11.7324 5.24 13.3057 5.24C14.0391 5.24 14.6124 5.44 15.0257 5.84C15.4391 6.24 15.6457 6.76 15.6457 7.4C15.6457 7.74667 15.5724 8.14 15.4257 8.58C15.3991 8.66 15.3857 8.77333 15.3857 8.92C15.3857 9.14667 15.4857 9.33333 15.6857 9.48C15.8857 9.62667 16.1657 9.7 16.5257 9.7C17.2991 9.7 17.8124 9.36667 18.0657 8.7L18.2057 8.32C18.3124 8.04 18.5191 7.9 18.8257 7.9C19.1991 7.9 19.3857 8.04667 19.3857 8.34C19.3857 8.43333 19.3657 8.52667 19.3257 8.62L19.1857 9C18.7324 10.2 17.8257 10.8 16.4657 10.8C15.7591 10.8 15.2124 10.6067 14.8257 10.22L14.3857 11.46C13.7457 13.26 12.6391 14.16 11.0657 14.16ZM11.2257 13.06C12.0791 13.06 12.7324 12.4267 13.1857 11.16L14.1857 8.4C14.3057 8.05333 14.3657 7.73333 14.3657 7.44C14.3657 7.10667 14.2591 6.84 14.0457 6.64C13.8324 6.44 13.5324 6.34 13.1457 6.34C12.2924 6.34 11.6391 6.97333 11.1857 8.24L10.1857 11C10.0657 11.3467 10.0057 11.6667 10.0057 11.96C10.0057 12.2933 10.1124 12.56 10.3257 12.76C10.5391 12.96 10.8391 13.06 11.2257 13.06Z" fill="#8A654D"/>
<path d="M21.6856 8.3C21.8722 7.86 21.9656 7.49333 21.9656 7.2C21.9656 6.94667 21.8856 6.74 21.7256 6.58C21.5789 6.42 21.3722 6.34 21.1056 6.34C20.7722 6.34 20.4856 6.49333 20.2456 6.8C20.0056 7.09333 19.7656 7.57333 19.5256 8.24L18.6856 10.58C18.5256 11.0333 18.4456 11.3867 18.4456 11.64C18.4456 12.5867 19.1056 13.06 20.4256 13.06C21.1589 13.06 21.8389 12.8267 22.4656 12.36C23.1056 11.8933 23.5989 11.1933 23.9456 10.26L24.0856 9.88C24.1922 9.6 24.3989 9.46 24.7056 9.46C25.0789 9.46 25.2656 9.60667 25.2656 9.9C25.2656 9.99333 25.2456 10.0867 25.2056 10.18L25.0656 10.56C24.6522 11.7067 24.0056 12.5933 23.1256 13.22C22.2456 13.8467 21.2789 14.16 20.2256 14.16C18.1856 14.16 17.1656 13.3333 17.1656 11.68C17.1656 11.3467 17.2722 10.8733 17.4856 10.26L18.3256 7.94C18.6722 7.00667 19.0722 6.32667 19.5256 5.9C19.9789 5.46 20.5589 5.24 21.2656 5.24C21.8789 5.24 22.3589 5.42 22.7056 5.78C23.0656 6.14 23.2456 6.6 23.2456 7.16C23.2456 7.53333 23.1256 8.01333 22.8856 8.6C22.7656 8.92 22.5389 9.08 22.2056 9.08H22.1856C21.8122 9.08 21.6256 8.91333 21.6256 8.58C21.6256 8.48667 21.6456 8.39333 21.6856 8.3Z" fill="#8A654D"/>
<path d="M25.8509 14.16C25.1176 14.16 24.5442 13.96 24.1309 13.56C23.7176 13.16 23.5109 12.64 23.5109 12C23.5109 11.6267 23.5976 11.1933 23.7709 10.7L24.7709 7.94C25.4109 6.14 26.5176 5.24 28.0909 5.24C28.8242 5.24 29.3976 5.44 29.8109 5.84C30.2242 6.24 30.4309 6.76 30.4309 7.4C30.4309 7.74667 30.3576 8.14 30.2109 8.58C30.1842 8.66 30.1709 8.77333 30.1709 8.92C30.1709 9.14667 30.2709 9.33333 30.4709 9.48C30.6709 9.62667 30.9509 9.7 31.3109 9.7C32.0842 9.7 32.5976 9.36667 32.8509 8.7L32.9909 8.32C33.0976 8.04 33.3042 7.9 33.6109 7.9C33.9842 7.9 34.1709 8.04667 34.1709 8.34C34.1709 8.43333 34.1509 8.52667 34.1109 8.62L33.9709 9C33.5176 10.2 32.6109 10.8 31.2509 10.8C30.5442 10.8 29.9976 10.6067 29.6109 10.22L29.1709 11.46C28.5309 13.26 27.4242 14.16 25.8509 14.16ZM26.0109 13.06C26.8642 13.06 27.5176 12.4267 27.9709 11.16L28.9709 8.4C29.0909 8.05333 29.1509 7.73333 29.1509 7.44C29.1509 7.10667 29.0442 6.84 28.8309 6.64C28.6176 6.44 28.3176 6.34 27.9309 6.34C27.0776 6.34 26.4242 6.97333 25.9709 8.24L24.9709 11C24.8509 11.3467 24.7909 11.6667 24.7909 11.96C24.7909 12.2933 24.8976 12.56 25.1109 12.76C25.3242 12.96 25.6242 13.06 26.0109 13.06Z" fill="#8A654D"/>
<path d="M34.1907 14.16C33.4707 14.16 32.9041 13.96 32.4907 13.56C32.0774 13.16 31.8707 12.64 31.8707 12C31.8707 11.6 31.9507 11.1667 32.1107 10.7L33.1107 7.94C33.7507 6.14 34.8441 5.24 36.3907 5.24C37.2307 5.24 37.8241 5.50667 38.1707 6.04L38.2907 5.72C38.3974 5.4 38.6241 5.24 38.9707 5.24H38.9907C39.3641 5.24 39.5507 5.40667 39.5507 5.74C39.5507 5.83333 39.5307 5.92667 39.4907 6.02L37.6707 11.02C37.5107 11.4867 37.4307 11.86 37.4307 12.14C37.4307 12.4333 37.5241 12.66 37.7107 12.82C37.9107 12.98 38.1841 13.06 38.5307 13.06C39.0374 13.06 39.4307 12.8733 39.7107 12.5C40.0041 12.1267 40.2974 11.5467 40.5907 10.76L40.7307 10.38C40.8374 10.1 41.0441 9.96 41.3507 9.96C41.7241 9.96 41.9107 10.1067 41.9107 10.4C41.9107 10.48 41.8907 10.5733 41.8507 10.68L41.7107 11.06C41.3107 12.1667 40.8507 12.96 40.3307 13.44C39.8241 13.92 39.1707 14.16 38.3707 14.16C37.4641 14.16 36.7974 13.8533 36.3707 13.24C35.7974 13.8533 35.0707 14.16 34.1907 14.16ZM34.3507 13.06C35.2041 13.06 35.8574 12.4267 36.3107 11.16L37.3107 8.4C37.4307 8.05333 37.4907 7.73333 37.4907 7.44C37.4907 7.10667 37.3841 6.84 37.1707 6.64C36.9574 6.44 36.6574 6.34 36.2707 6.34C35.4174 6.34 34.7641 6.97333 34.3107 8.24L33.3107 11C33.1907 11.3467 33.1307 11.6667 33.1307 11.96C33.1307 12.2933 33.2374 12.56 33.4507 12.76C33.6641 12.96 33.9641 13.06 34.3507 13.06Z" fill="#8A654D"/>
<path d="M55.6468 11.04C55.2602 12.08 54.5668 12.86 53.5668 13.38C52.5802 13.9 51.4335 14.16 50.1268 14.16C48.7135 14.16 47.6268 13.8467 46.8668 13.22C46.1202 12.58 45.7468 11.6867 45.7468 10.54C45.7468 9.56667 45.9668 8.45333 46.4068 7.2L47.3868 4.46C47.9202 2.96667 48.5802 1.85333 49.3668 1.12C50.1535 0.373333 51.1268 0 52.2868 0C53.2735 0 54.0535 0.273333 54.6268 0.82C55.2002 1.36667 55.4868 2.06667 55.4868 2.92C55.4868 3.36 55.4135 3.77333 55.2668 4.16L55.1068 4.6C54.7735 5.52 54.3135 6.18 53.7268 6.58C53.1402 6.96667 52.3802 7.16 51.4468 7.16C51.1002 7.16 50.9268 7 50.9268 6.68C50.9268 6.49333 50.9868 6.34 51.1068 6.22C51.2402 6.08667 51.4068 6.02 51.6068 6.02C52.7268 6.02 53.4935 5.44667 53.9068 4.3L54.0668 3.86C54.1868 3.54 54.2468 3.23333 54.2468 2.94C54.2468 2.40667 54.0602 1.97333 53.6868 1.64C53.3268 1.30667 52.8202 1.14 52.1668 1.14C51.3935 1.14 50.7135 1.43333 50.1268 2.02C49.5535 2.60667 49.0402 3.52 48.5868 4.76L47.6068 7.5C47.1935 8.64667 46.9868 9.65333 46.9868 10.52C46.9868 11.32 47.2668 11.94 47.8268 12.38C48.3868 12.8067 49.1935 13.02 50.2468 13.02C51.2868 13.02 52.1935 12.8133 52.9668 12.4C53.7535 11.9867 54.2735 11.4333 54.5268 10.74L54.6668 10.36C54.7735 10.08 54.9802 9.94 55.2868 9.94C55.6468 9.94 55.8268 10.1 55.8268 10.42C55.8268 10.5267 55.8135 10.6067 55.7868 10.66L55.6468 11.04Z" fill="#8A654D"/>
<path d="M56.6126 14.16C55.8926 14.16 55.3259 13.96 54.9126 13.56C54.4993 13.16 54.2926 12.64 54.2926 12C54.2926 11.6 54.3726 11.1667 54.5326 10.7L55.5326 7.94C56.1726 6.14 57.2659 5.24 58.8126 5.24C59.6526 5.24 60.2459 5.50667 60.5926 6.04L60.7126 5.72C60.8193 5.4 61.0459 5.24 61.3926 5.24H61.4126C61.7859 5.24 61.9726 5.40667 61.9726 5.74C61.9726 5.83333 61.9526 5.92667 61.9126 6.02L60.0926 11.02C59.9326 11.4867 59.8526 11.86 59.8526 12.14C59.8526 12.4333 59.9459 12.66 60.1326 12.82C60.3326 12.98 60.6059 13.06 60.9526 13.06C61.4593 13.06 61.8526 12.8733 62.1326 12.5C62.4259 12.1267 62.7193 11.5467 63.0126 10.76L63.1526 10.38C63.2593 10.1 63.4659 9.96 63.7726 9.96C64.1459 9.96 64.3326 10.1067 64.3326 10.4C64.3326 10.48 64.3126 10.5733 64.2726 10.68L64.1326 11.06C63.7326 12.1667 63.2726 12.96 62.7526 13.44C62.2459 13.92 61.5926 14.16 60.7926 14.16C59.8859 14.16 59.2193 13.8533 58.7926 13.24C58.2193 13.8533 57.4926 14.16 56.6126 14.16ZM56.7726 13.06C57.6259 13.06 58.2793 12.4267 58.7326 11.16L59.7326 8.4C59.8526 8.05333 59.9126 7.73333 59.9126 7.44C59.9126 7.10667 59.8059 6.84 59.5926 6.64C59.3793 6.44 59.0793 6.34 58.6926 6.34C57.8393 6.34 57.1859 6.97333 56.7326 8.24L55.7326 11C55.6126 11.3467 55.5526 11.6667 55.5526 11.96C55.5526 12.2933 55.6593 12.56 55.8726 12.76C56.0859 12.96 56.3859 13.06 56.7726 13.06Z" fill="#8A654D"/>
<path d="M64.0887 6.54C63.7554 6.54 63.5887 6.38 63.5887 6.06C63.5887 5.86 63.6487 5.7 63.7687 5.58C63.902 5.46 64.0687 5.4 64.2687 5.4H64.9287L65.9487 2.56C66.3087 1.56 66.7954 0.886667 67.4087 0.54C68.0354 0.18 68.782 0 69.6487 0H70.2887C70.6087 0 70.7687 0.16 70.7687 0.48C70.7687 0.653333 70.702 0.806667 70.5687 0.94C70.4487 1.07333 70.2954 1.14 70.1087 1.14H69.4087C68.3154 1.14 67.562 1.71333 67.1487 2.86L66.2287 5.4H68.1087C68.442 5.4 68.6087 5.56 68.6087 5.88C68.6087 6.06667 68.5487 6.22667 68.4287 6.36C68.3087 6.48 68.142 6.54 67.9287 6.54H65.8087L64.2287 10.92C64.8954 11.28 65.3354 11.8933 65.5487 12.76C66.2554 12.68 66.802 12.48 67.1887 12.16C67.5887 11.8267 67.902 11.36 68.1287 10.76L68.2687 10.38C68.3754 10.1 68.5887 9.96 68.9087 9.96C69.2687 9.96 69.4487 10.1067 69.4487 10.4C69.4487 10.48 69.4287 10.5733 69.3887 10.68L69.2487 11.06C68.942 11.8867 68.502 12.5267 67.9287 12.98C67.3687 13.42 66.6287 13.6933 65.7087 13.8V14.06C65.7087 14.9133 65.562 15.7467 65.2687 16.56L65.0687 17.12C64.5354 18.64 63.6954 19.4 62.5487 19.4C61.962 19.4 61.5087 19.2333 61.1887 18.9C60.8554 18.5667 60.6887 18.1267 60.6887 17.58C60.6887 17.1933 60.782 16.7533 60.9687 16.26L64.5087 6.54H64.0887ZM61.9487 17.56C61.9487 18.0533 62.1687 18.3 62.6087 18.3C63.1154 18.3 63.5487 17.8067 63.9087 16.82L64.1087 16.26C64.3887 15.4733 64.5287 14.7333 64.5287 14.04C64.5287 13.1067 64.282 12.4533 63.7887 12.08L62.1687 16.56C62.022 17 61.9487 17.3333 61.9487 17.56Z" fill="#8A654D"/>
<path d="M73.9859 12.82C73.0926 13.7133 72.0259 14.16 70.7859 14.16C68.9192 14.16 67.9859 13.3333 67.9859 11.68C67.9859 11.3467 68.0926 10.8733 68.3059 10.26L69.1459 7.94C69.4926 6.99333 69.8992 6.30667 70.3659 5.88C70.8326 5.45333 71.3992 5.24 72.0659 5.24C72.6792 5.24 73.1592 5.40667 73.5059 5.74C73.8526 6.07333 74.0259 6.5 74.0259 7.02C74.0259 7.19333 74.0059 7.36667 73.9659 7.54L73.8459 8.08C73.6726 8.86667 73.3059 9.51333 72.7459 10.02C72.1859 10.5267 71.4992 10.78 70.6859 10.78C70.3659 10.78 69.9792 10.6867 69.5259 10.5L69.5059 10.58C69.3459 11.0333 69.2659 11.3867 69.2659 11.64C69.2659 12.5867 69.8392 13.06 70.9859 13.06C71.7859 13.06 72.5459 12.7 73.2659 11.98C73.3726 11.8733 73.4926 11.82 73.6259 11.82C73.7726 11.82 73.8992 11.8733 74.0059 11.98C74.1259 12.0733 74.1859 12.2 74.1859 12.36C74.1859 12.5333 74.1192 12.6867 73.9859 12.82ZM70.3459 8.24L69.9059 9.46C70.1992 9.60667 70.4859 9.68 70.7659 9.68C71.7126 9.66667 72.3192 9.06667 72.5859 7.88L72.6859 7.44C72.7126 7.28 72.7259 7.16667 72.7259 7.1C72.7259 6.59333 72.4659 6.34 71.9459 6.34C71.5992 6.34 71.3059 6.49333 71.0659 6.8C70.8259 7.09333 70.5859 7.57333 70.3459 8.24Z" fill="#8A654D"/>
</svg>
