<svg width="24" height="25" viewBox="0 0 24 25" fill="none" xmlns="http://www.w3.org/2000/svg">
<path d="M7.18687 18.75C6.11165 18.75 5.24169 19.6875 5.24169 20.8334C5.24169 21.9792 6.11165 22.9167 7.18687 22.9167C8.26209 22.9167 9.14182 21.9792 9.14182 20.8334C9.14182 19.6875 8.26209 18.75 7.18687 18.75ZM1.32202 2.08337V4.16671H3.27697L6.79588 12.073L5.47629 14.625C5.31989 14.9167 5.23192 15.2605 5.23192 15.625C5.23192 16.7709 6.11165 17.7084 7.18687 17.7084H18.9166V15.625H7.59741C7.46056 15.625 7.35304 15.5105 7.35304 15.3646L7.38236 15.2396L8.26209 13.5417H15.5443C16.2774 13.5417 16.9225 13.1146 17.2549 12.4688L20.7542 5.70837C20.8324 5.56254 20.8715 5.38546 20.8715 5.20837C20.8715 4.63546 20.4316 4.16671 19.894 4.16671H5.43719L4.51836 2.08337H1.32202ZM16.9616 18.75C15.8864 18.75 15.0164 19.6875 15.0164 20.8334C15.0164 21.9792 15.8864 22.9167 16.9616 22.9167C18.0368 22.9167 18.9166 21.9792 18.9166 20.8334C18.9166 19.6875 18.0368 18.75 16.9616 18.75Z" fill="white"/>
</svg>
