<svg width="16" height="15" viewBox="0 0 16 15" fill="none" xmlns="http://www.w3.org/2000/svg">
<path d="M14.4977 10.4167C13.4561 10.4167 12.4561 10.25 11.5227 9.94167C11.2311 9.85 10.9061 9.91667 10.6727 10.1417L8.83939 11.975C6.48105 10.775 4.54772 8.85 3.34772 6.48333L5.18105 4.64167C5.41439 4.425 5.48105 4.1 5.38939 3.80833C5.08105 2.875 4.91439 1.875 4.91439 0.833333C4.91439 0.375 4.53939 0 4.08105 0H1.16439C0.706055 0 0.331055 0.375 0.331055 0.833333C0.331055 8.65833 6.67272 15 14.4977 15C14.9561 15 15.3311 14.625 15.3311 14.1667V11.25C15.3311 10.7917 14.9561 10.4167 14.4977 10.4167ZM13.6644 7.5H15.3311C15.3311 3.35833 11.9727 0 7.83105 0V1.66667C11.0561 1.66667 13.6644 4.275 13.6644 7.5ZM10.3311 7.5H11.9977C11.9977 5.2 10.1311 3.33333 7.83105 3.33333V5C9.21439 5 10.3311 6.11667 10.3311 7.5Z" fill="white"/>
</svg>
